<?xml version="1.0" encoding="UTF-8" standalone="no"?>
<!-- Created with Inkscape (http://www.inkscape.org/) -->

<svg
   width="114.816mm"
   height="136.261mm"
   viewBox="0 0 114.816 136.26101"
   version="1.1"
   id="svg1"
   inkscape:version="1.4.3 (0d15f75, 2025-12-25)"
   sodipodi:docname="drawing.svg"
   xmlns:inkscape="http://www.inkscape.org/namespaces/inkscape"
   xmlns:sodipodi="http://sodipodi.sourceforge.net/DTD/sodipodi-0.dtd"
   xmlns="http://www.w3.org/2000/svg"
   xmlns:svg="http://www.w3.org/2000/svg">
  <sodipodi:namedview
     id="namedview1"
     pagecolor="#ffffff"
     bordercolor="#000000"
     borderopacity="0.25"
     inkscape:showpageshadow="2"
     inkscape:pageopacity="0.0"
     inkscape:pagecheckerboard="0"
     inkscape:deskcolor="#d1d1d1"
     inkscape:document-units="mm"
     inkscape:zoom="0.54106026"
     inkscape:cx="267.99233"
     inkscape:cy="472.22097"
     inkscape:window-width="1440"
     inkscape:window-height="738"
     inkscape:window-x="0"
     inkscape:window-y="30"
     inkscape:window-maximized="1"
     inkscape:current-layer="layer1" />
  <defs
     id="defs1" />
  <g
     inkscape:label="Layer 1"
     inkscape:groupmode="layer"
     id="layer1"
     transform="translate(-58.910761,-143.13947)">
    <path
       id="path68"
       d="m 96.421623,186.04643 c 1.969205,-0.82762 3.683357,-1.96921 5.142797,-3.42865 1.45734,-1.45767 2.6007,-3.17147 3.42832,-5.14279 0.82762,-1.96921 1.24143,-4.05836 1.24143,-6.26569 0,-2.20592 -0.41381,-4.27461 -1.24143,-6.20677 -0.82762,-1.9304 -1.97098,-3.62444 -3.42832,-5.08388 -1.45944,-1.45697 -3.173592,-2.60068 -5.142797,-3.42829 -1.970969,-0.82762 -4.060472,-1.24143 -6.266039,-1.24143 -2.20733,0 -4.276372,0.41381 -6.206771,1.24143 -1.932164,0.82761 -3.626203,1.97132 -5.083528,3.42829 -1.459442,1.45944 -2.60103,3.15348 -3.428294,5.08388 -0.82797,1.93216 -1.241425,4.00085 -1.241425,6.20677 v 16.07855 h 15.960018 c 2.205567,0 4.29507,-0.4138 6.266039,-1.24142 m -6.266039,-41.31945 c 3.703814,0 7.15257,0.69109 10.344506,2.06904 3.19195,1.37972 6.00925,3.27166 8.45295,5.67479 2.4423,2.40524 4.35401,5.2017 5.73408,8.39399 1.37796,3.19193 2.06906,6.64069 2.06906,10.3445 0,3.62621 -0.6911,7.0545 -2.06906,10.28559 -1.38007,3.23286 -3.29178,6.07025 -5.73408,8.51218 -2.4437,2.44369 -5.261,4.35574 -8.45295,5.73369 -3.191936,1.38007 -6.640692,2.06904 -10.344506,2.06904 H 74.195566 v 21.28026 H 63.673264 V 171.2093 c 0,-3.70381 0.689327,-7.15257 2.069041,-10.3445 1.37795,-3.19229 3.269897,-5.98875 5.674783,-8.39399 2.403475,-2.40313 5.220053,-4.29507 8.452908,-5.67479 3.231092,-1.37795 6.659386,-2.06904 10.285588,-2.06904"
       style="fill:#7bbda4;fill-opacity:1;fill-rule:nonzero;stroke:none;stroke-width:0.352778" />
    <path
       id="path69"
       d="m 157.71798,169.20369 v 10.52195 h -14.36131 c -2.20734,0 -4.2764,0.41381 -6.20681,1.24142 -1.93217,0.82762 -3.62622,1.97133 -5.08356,3.4283 -1.45945,1.45944 -2.60105,3.15348 -3.42831,5.08388 -0.82763,1.93216 -1.24144,4.00085 -1.24144,6.20677 v 26.6005 h -10.64019 v -26.6005 c 0,-3.70381 0.68862,-7.15257 2.0687,-10.3445 1.37796,-3.19229 3.29002,-5.98876 5.73408,-8.394 2.44195,-2.40312 5.27936,-4.29506 8.51188,-5.67478 3.23111,-1.37795 6.65943,-2.06904 10.28565,-2.06904 z"
       style="fill:#7bbda4;fill-opacity:1;fill-rule:nonzero;stroke:none;stroke-width:0.352778" />
    <path
       id="path70"
       d="m 90.155496,221.92813 c 3.703814,0 7.152569,0.69109 10.344504,2.06904 3.1923,1.37972 6.00925,3.27166 8.45331,5.67478 2.44194,2.40524 4.35365,5.20171 5.73373,8.394 1.37796,3.19193 2.06905,6.64069 2.06905,10.3445 v 26.6005 h -10.52201 v -26.6005 c 0,-2.20592 -0.41381,-4.27461 -1.24143,-6.20677 -0.82762,-1.9304 -1.97098,-3.62444 -3.42832,-5.08388 -1.45944,-1.45697 -3.17359,-2.60068 -5.142795,-3.4283 -1.97097,-0.82761 -4.060472,-1.24142 -6.266039,-1.24142 -2.20733,0 -4.276372,0.41381 -6.206772,1.24142 -1.932164,0.82762 -3.626203,1.97133 -5.083527,3.4283 -1.459442,1.45944 -2.601031,3.15348 -3.428295,5.08388 -0.827616,1.93216 -1.241425,4.00085 -1.241425,6.20677 v 26.6005 H 63.673528 v -74.36308 h 10.521949 v 26.71868 c 2.205567,-1.73284 4.66972,-3.07375 7.388931,-4.0199 2.719211,-0.94545 5.574946,-1.41852 8.571088,-1.41852"
       style="fill:#7bbda4;fill-opacity:1;fill-rule:nonzero;stroke:none;stroke-width:0.352778" />
    <path
       id="path71"
       d="m 146.00645,266.46566 c 2.20558,0 4.27463,-0.41381 6.20681,-1.24142 1.93041,-0.82727 3.62446,-1.96921 5.08355,-3.4283 1.45769,-1.45768 2.60105,-3.17182 3.42867,-5.14244 0.82762,-1.96956 1.24143,-4.05871 1.24143,-6.26604 v -15.96037 h -15.96046 c -2.20734,0 -4.2965,0.41345 -6.26607,1.24142 -1.97098,0.82762 -3.68514,1.97097 -5.14248,3.4283 -1.45945,1.45944 -2.60104,3.15313 -3.42867,5.08353 -0.82762,1.93251 -1.24143,4.0012 -1.24143,6.20712 0,2.20733 0.41381,4.29648 1.24143,6.26604 0.82763,1.97062 1.96922,3.68476 3.42867,5.14244 1.45734,1.45909 3.1715,2.60103 5.14248,3.4283 1.96957,0.82761 4.05873,1.24142 6.26607,1.24142 m 26.48247,-63.84113 v 47.76293 c 0,3.62585 -0.69109,7.0545 -2.06905,10.28524 -1.37972,3.23285 -3.27133,6.07024 -5.67482,8.51217 -2.4049,2.44405 -5.2222,4.3561 -8.45295,5.73405 -3.23288,1.37971 -6.66154,2.06869 -10.28565,2.06869 -3.62622,0 -7.05454,-0.68898 -10.28565,-2.06869 -3.23252,-1.37795 -6.06993,-3.29 -8.51187,-5.73405 -2.44406,-2.44193 -4.35613,-5.27932 -5.73409,-8.51217 -1.38007,-3.23074 -2.06905,-6.65939 -2.06905,-10.28524 0,-3.70381 0.68898,-7.15292 2.06905,-10.3445 1.37796,-3.19229 3.29003,-5.98911 5.73409,-8.394 2.44194,-2.40347 5.27935,-4.29506 8.51187,-5.67478 3.23111,-1.3783 6.65943,-2.06939 10.28565,-2.06939 h 15.96046 v -21.28026 z"
       style="fill:#7bbda4;fill-opacity:1;fill-rule:nonzero;stroke:none;stroke-width:0.352778" />
  </g>
</svg>
